<svg width="60" height="55" viewBox="0 0 60 55" fill="none" xmlns="http://www.w3.org/2000/svg">
<path opacity="0.05" d="M59.7726 41.9507C59.7512 42.0765 59.7228 42.2093 59.6944 42.3351C59.6802 42.3211 59.666 42.3071 59.6446 42.2931C59.602 42.2512 59.5523 42.2163 59.5096 42.1743C59.4741 42.1394 59.4385 42.1114 59.403 42.0765C59.3817 42.0555 59.3533 42.0345 59.332 42.0066C59.3248 41.9996 59.3177 41.9926 59.3106 41.9856C59.2893 42.1394 59.2609 42.2931 59.2325 42.4469C59.2822 42.4958 59.3248 42.5378 59.3746 42.5797C59.4457 42.6496 59.5167 42.7125 59.5949 42.7824C59.4457 43.3765 59.2538 43.9636 59.0193 44.5368C58.9198 44.4808 58.8203 44.4319 58.7137 44.376C58.6711 44.5158 58.6213 44.6486 58.5716 44.7814C58.6639 44.8373 58.7563 44.8862 58.8487 44.9352C58.4152 45.9277 57.8609 46.8852 57.2071 47.7589C57.1361 47.724 57.065 47.696 56.9939 47.661C56.8944 47.7589 56.7878 47.8428 56.667 47.9127C56.7665 47.9616 56.8731 48.0175 56.9726 48.0664C56.9868 48.0734 57.0081 48.0804 57.0223 48.0944C56.9939 48.1014 56.9584 48.1154 56.93 48.1223C56.667 48.1992 56.4041 48.2761 56.1411 48.353C55.4447 48.5557 54.7412 48.7724 54.0447 48.9821H54.0376C53.6397 49.1009 53.2417 49.2267 52.8437 49.3455C52.5666 49.4294 52.2965 49.5132 52.0194 49.5901C51.5717 49.7229 51.1169 49.8557 50.6692 49.9885C50.4844 50.0444 50.2996 50.0934 50.1077 50.1493C49.923 50.2052 49.7311 50.2541 49.5463 50.3101C45.787 51.3585 41.9921 52.2951 38.1546 53.0289C30.7781 54.4408 23.1813 55.0209 15.7053 54.0704C12.6921 53.686 9.77137 53.015 6.88614 52.1413C6.76533 52.1063 6.64452 52.0714 6.52371 52.0295C6.45975 52.0504 6.39579 52.0504 6.33183 52.0574C6.14707 52.0714 5.95519 52.0784 5.76332 52.0784C4.80394 52.0644 3.81614 51.7848 3.03443 51.3515C1.53496 50.5197 0.746142 48.989 0.575587 47.3395C0.397925 45.5992 0.753248 43.8588 1.08725 42.1603C1.471 40.1753 1.84765 38.1973 2.25982 36.2193C3.92274 28.2513 5.79174 20.3253 7.68917 12.4062C8.65565 8.35237 9.66477 4.29848 10.5531 0.223633C10.617 0.223633 10.6881 0.223633 10.7521 0.223633C10.8089 0.223633 10.8587 0.223633 10.9155 0.223633C10.9724 0.223633 11.0221 0.223633 11.079 0.223633H11.0932C11.1429 0.223633 11.1998 0.230622 11.2566 0.230622C11.2708 0.230622 11.2922 0.230622 11.3135 0.230622C11.3988 0.237612 11.484 0.237612 11.5693 0.244601C11.5906 0.244601 11.6119 0.244601 11.6262 0.251591C11.6688 0.25858 11.7185 0.25858 11.7612 0.26557C11.818 0.272559 11.8749 0.279548 11.9246 0.279548C11.9815 0.286538 12.0383 0.293527 12.0881 0.300517C10.0556 7.72331 2.43748 35.8069 1.67709 42.4958C0.802994 50.2192 3.53188 50.8622 4.95318 51.2886C6.37447 51.7149 7.78866 48.8213 7.78866 48.8213C7.78866 48.8213 21.2057 51.9316 28.7386 51.9316C32.0644 51.9316 35.3973 51.4563 38.6592 50.8692C42.1272 50.2471 45.5738 49.4573 48.9423 48.4159C51.3869 47.661 54.0376 46.8852 55.8498 45.019C56.7168 44.1244 57.4203 43.083 58.0457 42.0066C58.9482 40.4619 59.7299 38.7705 59.7583 37.0021C60.0923 38.6377 60.071 40.371 59.7726 41.9507Z" fill="black"/>
</svg>
