<svg width="58" height="51" viewBox="0 0 58 51" fill="none" xmlns="http://www.w3.org/2000/svg">
<path d="M53.8811 3.20974C52.8939 2.57702 51.8014 2.14862 50.676 1.84544C50.3338 1.75317 49.9916 1.68067 49.6494 1.60817C48.5372 1.39067 47.4052 1.27203 46.293 1.18635C46.293 1.18635 46.293 1.18635 46.2864 1.18635C46.0297 1.1534 45.7665 1.12704 45.5098 1.09408C44.9833 1.03476 44.4502 0.975446 43.9237 0.922719C43.8843 0.916128 43.8514 0.916128 43.8119 0.909537C43.3051 0.856811 42.7984 0.810675 42.2916 0.764539C42.2653 0.757948 42.2324 0.757948 42.1995 0.757948C41.8309 0.724994 41.4558 0.692039 41.0807 0.659085C41.0675 0.659085 41.0544 0.659085 41.0346 0.652494C40.6463 0.61954 40.258 0.586586 39.8697 0.560222C38.2705 0.434996 36.6713 0.329543 35.0655 0.243861C34.3481 0.204316 33.6374 0.164771 32.92 0.131817C31.6103 0.0659085 30.3073 0.0197726 28.9976 0C27.6945 0.0197726 26.3915 0.0659085 25.0818 0.125226C24.3645 0.15818 23.6537 0.197726 22.9363 0.237271C21.3371 0.329543 19.7313 0.428405 18.1321 0.553631C17.7438 0.579995 17.3555 0.612949 16.9672 0.645903C16.9475 0.659085 16.9343 0.659085 16.9146 0.659085C16.5394 0.692039 16.1709 0.724994 15.7958 0.757948C15.7694 0.757948 15.7365 0.764539 15.7036 0.764539C15.1969 0.810675 14.6901 0.856811 14.1834 0.909537C14.1439 0.916128 14.111 0.916128 14.0715 0.922719C13.545 0.975446 13.0119 1.03476 12.4854 1.09408C12.2353 1.12704 11.9787 1.15999 11.7154 1.18635C11.7154 1.18635 11.7154 1.18635 11.7088 1.18635C10.5966 1.27203 9.46465 1.39067 8.35243 1.60817C8.01021 1.67408 7.66141 1.75317 7.32577 1.84544C6.1938 2.14203 5.10791 2.57043 4.12073 3.20974C-1.22319 6.63699 -0.078067 14.2296 0.599795 19.5616C1.00125 22.745 1.4027 25.9548 1.31714 29.1645C1.31714 29.2172 1.31714 29.2766 1.31056 29.3293C1.31056 29.3688 1.31056 29.4084 1.30398 29.4479C1.37638 29.5072 1.45535 29.5666 1.52774 29.6259C2.33723 30.2454 3.27176 30.6936 4.31158 30.9243C5.0421 31.089 5.79893 31.1352 6.53603 31.0759C6.56235 32.6643 6.87167 34.2197 7.75355 35.7026C8.30637 36.6319 9.01055 37.4228 9.81346 38.0753C9.8332 38.1676 9.85294 38.2599 9.87269 38.3587C10.5111 41.3444 11.1955 44.3235 11.9458 47.2828C11.9655 47.375 11.9918 47.4607 12.0182 47.553C12.084 47.5859 12.1498 47.6189 12.2156 47.6453C12.2682 47.6716 12.3209 47.698 12.3735 47.7178C14.1176 48.5416 15.9471 49.1743 17.8491 49.6489C20.271 50.2486 22.7389 50.598 25.22 50.8023H25.2266C26.4836 50.9011 27.7472 50.967 29.0108 51C30.2744 50.9605 31.538 50.9011 32.795 50.8023H32.8015C35.2826 50.6045 37.7506 50.2552 40.1725 49.6489C42.0744 49.1743 43.904 48.5416 45.648 47.7178C45.7007 47.6914 45.7533 47.665 45.806 47.6453C45.8718 47.6123 45.9376 47.5859 46.0034 47.553C46.0297 47.4607 46.0495 47.375 46.0758 47.2828C46.8261 44.3235 47.5105 41.3444 48.1489 38.3587C48.1686 38.2665 48.1884 38.1742 48.2081 38.0753C49.011 37.4228 49.7086 36.6319 50.268 35.7026C51.1499 34.2197 51.4592 32.6643 51.4855 31.0759C52.2292 31.1352 52.9795 31.089 53.71 30.9243C54.7498 30.6936 55.6843 30.2454 56.4938 29.6259C56.5333 29.5995 56.5662 29.5666 56.6057 29.5402C56.6452 29.5138 56.6781 29.4809 56.7176 29.4479C56.711 29.3556 56.711 29.2568 56.711 29.1645C56.6189 25.9548 57.0269 22.745 57.4283 19.5616C58.0799 14.2296 59.2316 6.63699 53.8811 3.20974ZM15.7563 1.10067C16.1511 1.03476 16.546 0.962264 16.9343 0.876583C17.3226 0.843629 17.7109 0.810675 18.0992 0.784311C21.7254 0.514086 25.3582 0.375678 28.9976 0.322952C32.637 0.382269 36.2632 0.514086 39.8961 0.784311C40.2844 0.810675 40.6726 0.843629 41.0609 0.876583C41.4492 0.962264 41.8441 1.03476 42.239 1.10067C42.239 1.10726 42.239 1.12044 42.2455 1.12704C42.6536 4.20496 43.5157 7.19062 44.2857 10.2026C45.1479 13.5442 45.8455 17.0308 45.5164 20.4975C45.2268 23.5425 44.0093 26.3568 42.0415 28.6834C40.1396 30.9243 37.5795 32.5654 34.7956 33.4815C33.6374 33.8638 32.4264 34.134 31.2089 34.2922C31.1299 34.3054 31.0575 34.312 30.9786 34.3186C30.6561 34.3581 30.3402 34.3911 30.0177 34.4108C29.7676 34.4306 29.5241 34.4438 29.274 34.4438C29.2214 34.4438 29.1753 34.4438 29.1227 34.4438C28.9845 34.4438 28.8397 34.4438 28.7015 34.4438C28.4514 34.4372 28.2079 34.4306 27.9578 34.4108C27.6419 34.3845 27.3194 34.3581 26.9969 34.3186C26.918 34.312 26.8456 34.2988 26.7666 34.2922C25.5491 34.1274 24.3447 33.8572 23.1798 33.4815C20.396 32.572 17.8359 30.9243 15.934 28.6834C13.9596 26.3568 12.7487 23.5425 12.4591 20.4975C12.13 17.0308 12.8276 13.5442 13.6898 10.2026C14.4664 7.19062 15.3285 4.20496 15.7299 1.12704C15.7497 1.12044 15.7563 1.10726 15.7563 1.10067ZM6.83218 27.4443C6.67423 28.5516 6.54261 29.6522 6.53603 30.7397C5.80551 30.7925 5.06184 30.7463 4.33791 30.5815C3.35731 30.3575 2.40304 29.9291 1.56065 29.3425C2.12663 23.4107 0.106206 17.4921 0.422103 11.534C0.57347 8.67356 1.41586 5.6879 3.79825 3.8886C6.06218 2.18157 9.01713 1.79271 11.7615 1.54885C12.5183 1.48294 13.2752 1.41703 14.032 1.33794C13.5384 4.71246 13.0777 8.09356 12.3275 11.4219C11.8799 13.419 11.3337 15.3896 10.6493 17.3208C9.96482 19.2387 9.07636 21.0446 8.20765 22.8834C8.00363 23.3118 7.81278 23.7402 7.6285 24.1818C7.85226 22.0859 7.8391 19.9769 6.91115 18.0194C6.89799 17.993 6.84534 18.0128 6.8585 18.0392C7.77987 20.4185 7.5232 22.9362 7.14808 25.4539C7.0362 26.1129 6.9309 26.7786 6.83218 27.4443ZM45.6941 47.4409C45.2334 47.6453 44.7661 47.8364 44.2989 48.0275C39.3959 49.9652 34.2099 50.4925 28.9976 50.6968C23.7853 50.4925 18.6059 49.9652 13.7029 48.0275C13.2357 47.843 12.7684 47.6453 12.3077 47.4409C11.6364 44.3828 10.8994 41.3312 10.1096 38.2994C13.5055 40.8303 18.5533 41.0346 22.2914 39.0772C23.5879 38.3983 24.7528 37.4624 25.707 36.3419C25.9308 36.0783 26.1414 35.8015 26.3257 35.5181C27.0167 35.4324 27.7143 35.3797 28.4053 35.3533C28.6027 35.3467 28.7936 35.3401 28.991 35.3401H29.0174C29.2148 35.3401 29.4057 35.3467 29.6031 35.3533C30.2941 35.3797 30.9917 35.4324 31.6827 35.5181C31.8736 35.8015 32.0776 36.0783 32.3014 36.3419C33.2491 37.4624 34.4139 38.3983 35.717 39.0772C39.4551 41.0346 44.5029 40.8303 47.8988 38.2994C47.109 41.3378 46.3654 44.3828 45.6941 47.4409ZM51.0907 31.0363C51.0578 32.6643 50.7353 34.2592 49.8271 35.6895C49.4059 36.3551 48.8925 36.9417 48.32 37.4558C48.2344 37.5349 48.1423 37.614 48.0502 37.6865C46.5496 38.9322 44.6543 39.6901 42.7194 39.9406C40.1396 40.2701 37.4874 39.7626 35.2629 38.4049C34.0717 37.6799 33.0056 36.7044 32.1171 35.5774C32.0974 35.5576 32.0842 35.5379 32.0644 35.5115C32.0315 35.4654 31.9921 35.4258 31.9592 35.3797C31.8736 35.3599 31.788 35.3467 31.7091 35.3335C31.6498 35.3204 31.5972 35.3138 31.538 35.3072C30.9259 35.2083 30.3139 35.1358 29.6886 35.1029C29.4649 35.0897 29.2345 35.0831 29.0042 35.0765C28.7739 35.0831 28.5435 35.0897 28.3198 35.1029C27.6945 35.1358 27.0825 35.2083 26.4704 35.3072C26.4112 35.3138 26.3586 35.327 26.2993 35.3335C26.2138 35.3467 26.1282 35.3665 26.0492 35.3797C26.0163 35.4258 25.9834 35.472 25.9439 35.5115C25.9242 35.5313 25.911 35.551 25.8913 35.5774C25.0028 36.6979 23.9367 37.6799 22.7455 38.4049C20.521 39.7626 17.8622 40.2701 15.289 39.9406C13.3541 39.6901 11.4588 38.9322 9.95824 37.6865C9.86611 37.614 9.78055 37.5349 9.68841 37.4558C9.11585 36.9417 8.60252 36.3485 8.18132 35.6895C7.27312 34.2592 6.95064 32.6643 6.91774 31.0363C6.91774 30.9243 6.91115 30.8122 6.91115 30.7002C6.91115 29.5138 7.05594 28.3143 7.22047 27.1477C7.31261 26.5216 7.40474 25.8889 7.4903 25.2495C7.75355 24.5443 8.06286 23.8457 8.37876 23.1668C9.20141 21.4071 10.0635 19.6803 10.7348 17.8612C12.1366 14.0781 13.0053 10.0774 13.5516 6.08335C13.7688 4.50814 13.9728 2.92634 14.1439 1.34453C14.1439 1.33794 14.1439 1.32476 14.1439 1.31817C14.6506 1.26544 15.1508 1.19953 15.651 1.12044C14.6704 7.48721 11.6299 13.5244 12.084 20.0757C12.2946 23.068 13.3344 25.9086 15.1837 28.2747C16.954 30.5354 19.3233 32.2952 21.9755 33.3695C23.4628 33.9758 25.0226 34.3713 26.6218 34.5361C26.7074 34.5492 26.7995 34.5558 26.8851 34.5624C27.0035 34.5756 27.122 34.5822 27.2404 34.5888C27.247 34.5888 27.247 34.5888 27.2536 34.5888C27.8327 34.6415 28.4119 34.6613 28.991 34.6547C29.0371 34.6547 29.0832 34.6547 29.1292 34.6547C29.6623 34.6547 30.202 34.6349 30.7285 34.5888C30.7351 34.5888 30.7351 34.5888 30.7416 34.5888C30.8601 34.5822 30.9786 34.569 31.097 34.5624C31.1826 34.5558 31.2747 34.5492 31.3603 34.5361C32.9529 34.3713 34.5192 33.9692 36.0066 33.3695C38.6654 32.2886 41.028 30.5354 42.7984 28.2747C44.6477 25.9086 45.6875 23.068 45.8981 20.0757C46.3522 13.5178 43.3117 7.48062 42.3311 1.12044C42.8313 1.19953 43.338 1.26544 43.8382 1.31817C43.8382 1.32476 43.8382 1.33794 43.8382 1.34453C44.0093 2.92634 44.2133 4.50814 44.4305 6.08335C44.9833 10.0774 45.852 14.0781 47.2472 17.8612C47.9185 19.6803 48.7807 21.4071 49.6033 23.1668C49.9192 23.8457 50.2285 24.5377 50.4918 25.2495C50.5773 25.8889 50.676 26.5216 50.7616 27.1477C50.9261 28.3143 51.0709 29.5138 51.0709 30.7002C51.0972 30.8122 51.0907 30.9243 51.0907 31.0363ZM56.4477 29.3359C55.6054 29.9225 54.6445 30.3443 53.6705 30.575C52.9466 30.7397 52.2029 30.7925 51.4724 30.7331C51.4658 29.6456 51.3342 28.545 51.1762 27.4377C51.0775 26.772 50.9722 26.1129 50.8735 25.4473C50.4984 22.9296 50.2351 20.4119 51.1631 18.0326C51.1762 17.9996 51.1236 17.9798 51.1104 18.0128C50.1825 19.9703 50.1693 22.0728 50.3931 24.1752C50.2088 23.7402 50.0113 23.3052 49.8139 22.8768C48.9518 21.038 48.0633 19.2321 47.3723 17.3142C46.6813 15.3896 46.1416 13.4124 45.6941 11.4154C44.9438 8.08038 44.4831 4.70587 43.9896 1.33135C44.7464 1.41044 45.5032 1.47635 46.2601 1.54226C49.0044 1.78612 51.9594 2.17498 54.2233 3.88201C56.6057 5.68131 57.4481 8.66697 57.5995 11.5274C57.9022 17.4855 55.8818 23.4041 56.4477 29.3359Z" fill="#C47B4E"/>
</svg>
